<svg xmlns="http://www.w3.org/2000/svg" xmlns:xlink="http://www.w3.org/1999/xlink" width="800" height="521.04"><rect width="800" height="521.04" rx="0" ry="0" class="a"/><svg height="521.04" viewBox="0 0 80 52.104" width="800" xmlns="http://www.w3.org/2000/svg" xmlns:xlink="http://www.w3.org/1999/xlink"><style>@keyframes f{0%{transform:translateX(0)}3.3%{transform:translateX(-240px)}18%{transform:translateX(-320px)}19.3%{transform:translateX(-400px)}20.9%{transform:translateX(-480px)}22.2%{transform:translateX(-560px)}26.1%{transform:translateX(-640px)}33.3%{transform:translateX(-720px)}44.6%{transform:translateX(-800px)}58.3%{transform:translateX(-880px)}68.3%{transform:translateX(-960px)}71.7%{transform:translateX(-1280px)}84.5%{transform:translateX(-1360px)}94.1%{transform:translateX(-1440px)}to{transform:translateX(-1520px)}}.a{fill:#fff}.c{fill:#000;white-space:pre}</style><g font-family="Monaco,Consolas,Menlo,'Bitstream Vera Sans Mono','Powerline Symbols',monospace" font-size="1.67"><defs><symbol id="1"><text y="1.67" class="c">(base)</text><text x="7.014" y="1.67" class="c">nene@Sekai</text><text x="18.036" y="1.67" class="c">Your-path</text><text x="28.056" y="1.67" class="c">%</text></symbol><symbol id="2"><text y="1.67" class="c">(base)</text><text x="7.014" y="1.67" class="c">nene@Sekai</text><text x="18.036" y="1.67" class="c">Your-path</text><text x="28.056" y="1.67" class="c">%</text><text x="30.06" y="1.67" class="c">echo</text></symbol><symbol id="3"><text y="1.67" class="c">(base)</text><text x="7.014" y="1.67" class="c">nene@Sekai</text><text x="18.036" y="1.67" class="c">Your-path</text><text x="28.056" y="1.67" class="c">%</text><text x="30.06" y="1.67" class="c">echo</text><text x="35.07" y="1.67" class="c">我是猫猫！</text></symbol><symbol id="4"><text y="1.67" class="c">我是猫猫！</text></symbol><symbol id="a"><path fill="transparent" d="M0 0h80v24H0z"/></symbol><symbol id="b"><path fill="#929292" d="M0 0h1.102v2.171H0z"/></symbol></defs><path class="a" d="M0 0h80v52.104H0z"/><g style="animation-duration:10.452548s;animation-iteration-count:infinite;animation-name:f;animation-timing-function:steps(1,end)"><svg width="1600"><svg><use xlink:href="#a"/><use xlink:href="#b" x="-.004"/></svg><svg x="80"><use xlink:href="#a"/><use xlink:href="#b" x="-.004"/></svg><svg x="160"><use xlink:href="#a"/><use xlink:href="#b" x="-.004"/></svg><svg x="240"><use xlink:href="#a"/><use xlink:href="#b" x="29.996"/><use xlink:href="#1"/></svg><svg x="320"><use xlink:href="#a"/><use xlink:href="#b" x="30.996"/><text y="1.67" class="c">(base)</text><text x="7.014" y="1.67" class="c">nene@Sekai</text><text x="18.036" y="1.67" class="c">Your-path</text><text x="28.056" y="1.67" class="c">%</text><text x="30.06" y="1.67" class="c">e</text></svg><svg x="400"><use xlink:href="#a"/><use xlink:href="#b" x="31.996"/><text y="1.67" class="c">(base)</text><text x="7.014" y="1.67" class="c">nene@Sekai</text><text x="18.036" y="1.67" class="c">Your-path</text><text x="28.056" y="1.67" class="c">%</text><text x="30.06" y="1.67" class="c">ec</text></svg><svg x="480"><use xlink:href="#a"/><use xlink:href="#b" x="32.996"/><text y="1.67" class="c">(base)</text><text x="7.014" y="1.67" class="c">nene@Sekai</text><text x="18.036" y="1.67" class="c">Your-path</text><text x="28.056" y="1.67" class="c">%</text><text x="30.06" y="1.67" class="c">ech</text></svg><svg x="560"><use xlink:href="#a"/><use xlink:href="#b" x="33.996"/><use xlink:href="#2"/></svg><svg x="640"><use xlink:href="#a"/><use xlink:href="#b" x="34.996"/><use xlink:href="#2"/></svg><svg x="720"><use xlink:href="#a"/><use xlink:href="#b" x="35.996"/><text y="1.67" class="c">(base)</text><text x="7.014" y="1.67" class="c">nene@Sekai</text><text x="18.036" y="1.67" class="c">Your-path</text><text x="28.056" y="1.67" class="c">%</text><text x="30.06" y="1.67" class="c">echo</text><text x="35.07" y="1.67" class="c">我</text></svg><svg x="800"><use xlink:href="#a"/><use xlink:href="#b" x="36.996"/><text y="1.67" class="c">(base)</text><text x="7.014" y="1.67" class="c">nene@Sekai</text><text x="18.036" y="1.67" class="c">Your-path</text><text x="28.056" y="1.67" class="c">%</text><text x="30.06" y="1.67" class="c">echo</text><text x="35.07" y="1.67" class="c">我是</text></svg><svg x="880"><use xlink:href="#a"/><use xlink:href="#b" x="38.996"/><text y="1.67" class="c">(base)</text><text x="7.014" y="1.67" class="c">nene@Sekai</text><text x="18.036" y="1.67" class="c">Your-path</text><text x="28.056" y="1.67" class="c">%</text><text x="30.06" y="1.67" class="c">echo</text><text x="35.07" y="1.67" class="c">我是猫猫</text></svg><svg x="960"><use xlink:href="#a"/><use xlink:href="#b" x="39.996"/><use xlink:href="#3"/></svg><svg x="1040"><use xlink:href="#a"/><use xlink:href="#b" x="-.004" y="2.146"/><use xlink:href="#3"/></svg><svg x="1120"><use xlink:href="#a"/><use xlink:href="#b" x="-.004" y="4.317"/><use xlink:href="#3"/><use xlink:href="#4" y="2.171"/></svg><svg x="1200"><use xlink:href="#a"/><use xlink:href="#b" x="-.004" y="4.317"/><use xlink:href="#3"/><use xlink:href="#4" y="2.171"/></svg><svg x="1280"><use xlink:href="#a"/><use xlink:href="#b" x="29.996" y="4.317"/><use xlink:href="#3"/><use xlink:href="#4" y="2.171"/><use xlink:href="#1" y="4.342"/></svg><svg x="1360"><use xlink:href="#a"/><use xlink:href="#b" x="31.996" y="4.317"/><use xlink:href="#3"/><use xlink:href="#4" y="2.171"/><text y="6.012" class="c">(base)</text><text x="7.014" y="6.012" class="c">nene@Sekai</text><text x="18.036" y="6.012" class="c">Your-path</text><text x="28.056" y="6.012" class="c">%</text><text x="30.06" y="6.012" class="c">马上</text></svg><svg x="1440"><use xlink:href="#a"/><use xlink:href="#b" x="33.996" y="4.317"/><use xlink:href="#3"/><use xlink:href="#4" y="2.171"/><text y="6.012" class="c">(base)</text><text x="7.014" y="6.012" class="c">nene@Sekai</text><text x="18.036" y="6.012" class="c">Your-path</text><text x="28.056" y="6.012" class="c">%</text><text x="30.06" y="6.012" class="c">马上开始</text></svg><svg x="1520"><use xlink:href="#a"/><use xlink:href="#b" x="34.996" y="4.317"/><use xlink:href="#3"/><use xlink:href="#4" y="2.171"/><text y="6.012" class="c">(base)</text><text x="7.014" y="6.012" class="c">nene@Sekai</text><text x="18.036" y="6.012" class="c">Your-path</text><text x="28.056" y="6.012" class="c">%</text><text x="30.06" y="6.012" class="c">马上开始！</text></svg></svg></g></g></svg></svg>